<svg width="60" height="38" viewBox="0 0 60 38" fill="none" xmlns="http://www.w3.org/2000/svg">
<g filter="url(#filter0_d_28492_128)">
<path d="M10.2859 30.2874C7.92264 30.2874 6 28.3647 6 26.0015V12.2867C6 9.9235 7.92264 8.00086 10.2859 8.00086H20.5719C21.5166 8.00086 22.4286 8.39602 23.0749 9.08604C23.7203 9.77521 24.0555 10.7121 23.9938 11.6558C23.9072 12.9767 23.0638 14.0876 21.9006 14.5831C22.0729 15.1874 22.0643 15.838 21.8629 16.4483C21.5757 17.3149 21.43 18.2218 21.43 19.145C21.43 20.0681 21.5757 20.9759 21.8629 21.8416C22.0643 22.4494 22.0729 23.0974 21.9031 23.7C22.3429 23.8851 22.7449 24.162 23.0758 24.5152C23.7212 25.2043 24.0564 26.1412 23.9946 27.085C23.8772 28.8807 22.3617 30.2882 20.5437 30.2882H10.2876L10.2859 30.2874Z" fill="white"/>
<path d="M39.4298 30.2874C38.4852 30.2874 37.5731 29.8922 36.9268 29.2022C36.2814 28.513 35.9462 27.5761 36.0079 26.6324C36.0945 25.3115 36.938 24.2006 38.1011 23.7051C37.9289 23.1008 37.9374 22.4502 38.1389 21.8399C38.426 20.9733 38.5717 20.0664 38.5717 19.1433C38.5717 18.2201 38.426 17.3123 38.1389 16.4466C37.9374 15.8389 37.9289 15.1908 38.0986 14.5882C37.6588 14.4031 37.2568 14.1262 36.926 13.7731C36.2805 13.0839 35.9454 12.147 36.0071 11.2033C36.1245 9.40748 37.64 8 39.4581 8H49.7141C52.0774 8 54 9.92264 54 12.2859V26.0006C54 28.3639 52.0774 30.2865 49.7141 30.2865H39.4281L39.4298 30.2874Z" fill="white"/>
<path d="M30.0009 30.2874C36.1551 30.2874 41.1441 25.2984 41.1441 19.1441C41.1441 12.9899 36.1551 8.00086 30.0009 8.00086C23.8466 8.00086 18.8576 12.9899 18.8576 19.1441C18.8576 25.2984 23.8466 30.2874 30.0009 30.2874Z" fill="white"/>
<path d="M20.5719 26.0015H18.8576C18.3844 26.0015 18.0004 25.6175 18.0004 25.1443V24.2872C18.0004 23.814 18.3844 23.43 18.8576 23.43C19.2622 23.43 19.5476 23.034 19.4208 22.65C19.0556 21.5476 18.8576 20.369 18.8576 19.1441C18.8576 17.9192 19.0556 16.7406 19.4208 15.6383C19.5485 15.2543 19.2622 14.8582 18.8576 14.8582C18.3844 14.8582 18.0004 14.4742 18.0004 14.0011V13.1439C18.0004 12.6707 18.3844 12.2867 18.8576 12.2867H20.5419C20.998 12.2867 21.3974 11.9421 21.4265 11.487C21.4591 10.9881 21.0631 10.5724 20.5711 10.5724H10.285C9.33783 10.5724 8.57066 11.3395 8.57066 12.2867V26.0015C8.57066 26.9487 9.33783 27.7158 10.285 27.7158H20.5411C20.9971 27.7158 21.3965 27.3713 21.4257 26.9161C21.4583 26.4172 21.0622 26.0015 20.5702 26.0015H20.5719ZM14.5717 25.1443C14.5717 25.6175 14.1877 26.0015 13.7146 26.0015H11.143C10.6699 26.0015 10.2859 25.6175 10.2859 25.1443V24.2872C10.2859 23.814 10.6699 23.43 11.143 23.43H13.7146C14.1877 23.43 14.5717 23.814 14.5717 24.2872V25.1443ZM14.5717 14.0011C14.5717 14.4742 14.1877 14.8582 13.7146 14.8582H11.143C10.6699 14.8582 10.2859 14.4742 10.2859 14.0011V13.1439C10.2859 12.6707 10.6699 12.2867 11.143 12.2867H13.7146C14.1877 12.2867 14.5717 12.6707 14.5717 13.1439V14.0011Z" fill="#BFDBEB"/>
<path d="M49.7158 10.5724H39.4598C39.0037 10.5724 38.6043 10.917 38.5752 11.3721C38.5426 11.871 38.9386 12.2867 39.4306 12.2867H41.145C41.6181 12.2867 42.0021 12.6707 42.0021 13.1439V14.0011C42.0021 14.4742 41.6181 14.8582 41.145 14.8582C40.7404 14.8582 40.4549 15.2543 40.5818 15.6383C40.947 16.7406 41.145 17.9192 41.145 19.1441C41.145 20.369 40.947 21.5476 40.5818 22.65C40.4541 23.034 40.7404 23.43 41.145 23.43C41.6181 23.43 42.0021 23.814 42.0021 24.2872V25.1443C42.0021 25.6175 41.6181 26.0015 41.145 26.0015H39.4606C39.0046 26.0015 38.6052 26.3461 38.576 26.8012C38.5434 27.3001 38.9395 27.7158 39.4315 27.7158H49.7176C50.6647 27.7158 51.4319 26.9487 51.4319 26.0015V12.2867C51.4319 11.3395 50.6647 10.5724 49.7176 10.5724H49.7158ZM49.7158 25.1443C49.7158 25.6175 49.3318 26.0015 48.8587 26.0015H46.2871C45.814 26.0015 45.43 25.6175 45.43 25.1443V24.2872C45.43 23.814 45.814 23.43 46.2871 23.43H48.8587C49.3318 23.43 49.7158 23.814 49.7158 24.2872V25.1443ZM49.7158 14.0011C49.7158 14.4742 49.3318 14.8582 48.8587 14.8582H46.2871C45.814 14.8582 45.43 14.4742 45.43 14.0011V13.1439C45.43 12.6707 45.814 12.2867 46.2871 12.2867H48.8587C49.3318 12.2867 49.7158 12.6707 49.7158 13.1439V14.0011Z" fill="#97B6CF"/>
<path d="M30.0009 10.5724C25.2667 10.5724 21.4291 14.4099 21.4291 19.1441C21.4291 23.8783 25.2667 27.7158 30.0009 27.7158C34.735 27.7158 38.5726 23.8783 38.5726 19.1441C38.5726 14.4099 34.735 10.5724 30.0009 10.5724ZM34.2867 20.3133H31.17V23.43C31.17 24.0754 30.6463 24.5992 30.0009 24.5992C29.3554 24.5992 28.8317 24.0754 28.8317 23.43V20.3133H25.715C25.0695 20.3133 24.5458 19.7896 24.5458 19.1441C24.5458 18.4987 25.0695 17.9749 25.715 17.9749H28.8317V14.8582C28.8317 14.2128 29.3554 13.6891 30.0009 13.6891C30.6463 13.6891 31.17 14.2128 31.17 14.8582V17.9749H34.2867C34.9322 17.9749 35.4559 18.4987 35.4559 19.1441C35.4559 19.7896 34.9322 20.3133 34.2867 20.3133Z" fill="#A8C9FC"/>
<path d="M20.5719 26.0015H18.8576C18.3844 26.0015 18.0004 25.6175 18.0004 25.1443V24.2872C18.0004 23.814 18.3844 23.43 18.8576 23.43C19.2622 23.43 19.5476 23.034 19.4208 22.65C19.0556 21.5476 18.8576 20.369 18.8576 19.1441C18.8576 17.9192 19.0556 16.7406 19.4208 15.6383C19.5485 15.2543 19.2622 14.8582 18.8576 14.8582C18.3844 14.8582 18.0004 14.4742 18.0004 14.0011V13.1439C18.0004 12.6707 18.3844 12.2867 18.8576 12.2867H20.5419C20.998 12.2867 21.3974 11.9421 21.4265 11.487C21.4591 10.9881 21.0631 10.5724 20.5711 10.5724H10.285C9.33783 10.5724 8.57066 11.3395 8.57066 12.2867V26.0015C8.57066 26.9487 9.33783 27.7158 10.285 27.7158H20.5411C20.9971 27.7158 21.3965 27.3713 21.4257 26.9161C21.4583 26.4172 21.0622 26.0015 20.5702 26.0015H20.5719ZM14.5717 25.1443C14.5717 25.6175 14.1877 26.0015 13.7146 26.0015H11.143C10.6699 26.0015 10.2859 25.6175 10.2859 25.1443V24.2872C10.2859 23.814 10.6699 23.43 11.143 23.43H13.7146C14.1877 23.43 14.5717 23.814 14.5717 24.2872V25.1443ZM14.5717 14.0011C14.5717 14.4742 14.1877 14.8582 13.7146 14.8582H11.143C10.6699 14.8582 10.2859 14.4742 10.2859 14.0011V13.1439C10.2859 12.6707 10.6699 12.2867 11.143 12.2867H13.7146C14.1877 12.2867 14.5717 12.6707 14.5717 13.1439V14.0011Z" fill="#A8C9FC"/>
<path d="M49.7158 10.5724H39.4598C39.0037 10.5724 38.6043 10.917 38.5752 11.3721C38.5426 11.871 38.9386 12.2867 39.4306 12.2867H41.145C41.6181 12.2867 42.0021 12.6707 42.0021 13.1439V14.0011C42.0021 14.4742 41.6181 14.8582 41.145 14.8582C40.7404 14.8582 40.4549 15.2543 40.5818 15.6383C40.947 16.7406 41.145 17.9192 41.145 19.1441C41.145 20.369 40.947 21.5476 40.5818 22.65C40.4541 23.034 40.7404 23.43 41.145 23.43C41.6181 23.43 42.0021 23.814 42.0021 24.2872V25.1443C42.0021 25.6175 41.6181 26.0015 41.145 26.0015H39.4606C39.0046 26.0015 38.6052 26.3461 38.576 26.8012C38.5434 27.3001 38.9395 27.7158 39.4315 27.7158H49.7176C50.6647 27.7158 51.4319 26.9487 51.4319 26.0015V12.2867C51.4319 11.3395 50.6647 10.5724 49.7176 10.5724H49.7158ZM49.7158 25.1443C49.7158 25.6175 49.3318 26.0015 48.8587 26.0015H46.2871C45.814 26.0015 45.43 25.6175 45.43 25.1443V24.2872C45.43 23.814 45.814 23.43 46.2871 23.43H48.8587C49.3318 23.43 49.7158 23.814 49.7158 24.2872V25.1443ZM49.7158 14.0011C49.7158 14.4742 49.3318 14.8582 48.8587 14.8582H46.2871C45.814 14.8582 45.43 14.4742 45.43 14.0011V13.1439C45.43 12.6707 45.814 12.2867 46.2871 12.2867H48.8587C49.3318 12.2867 49.7158 12.6707 49.7158 13.1439V14.0011Z" fill="#7AACF9"/>
</g>
<defs>
<filter id="filter0_d_28492_128" x="-1.5" y="0.5" width="63" height="37.2882" filterUnits="userSpaceOnUse" color-interpolation-filters="sRGB">
<feFlood flood-opacity="0" result="BackgroundImageFix"/>
<feColorMatrix in="SourceAlpha" type="matrix" values="0 0 0 0 0 0 0 0 0 0 0 0 0 0 0 0 0 0 127 0" result="hardAlpha"/>
<feOffset/>
<feGaussianBlur stdDeviation="3.75"/>
<feComposite in2="hardAlpha" operator="out"/>
<feColorMatrix type="matrix" values="0 0 0 0 0 0 0 0 0 0 0 0 0 0 0 0 0 0 0.15 0"/>
<feBlend mode="normal" in2="BackgroundImageFix" result="effect1_dropShadow_28492_128"/>
<feBlend mode="normal" in="SourceGraphic" in2="effect1_dropShadow_28492_128" result="shape"/>
</filter>
</defs>
</svg>
