<svg width="397" height="397" viewBox="0 0 397 397" fill="none" xmlns="http://www.w3.org/2000/svg">
<path fill-rule="evenodd" clip-rule="evenodd" d="M254.023 229.274C272.808 205.196 284 174.905 284 142C284 63.5756 220.424 0 142 0C63.5756 0 0 63.5756 0 142C0 220.424 63.5756 284 142 284C174.905 284 205.196 272.808 229.274 254.023L368.334 393.083C371.534 396.283 377.163 396.486 382.245 395.798C389.302 394.842 394.841 389.302 395.798 382.245C396.486 377.163 396.283 371.534 393.083 368.334L254.023 229.274ZM142 259C206.617 259 259 206.617 259 142C259 77.3827 206.617 25 142 25C77.3827 25 25 77.3827 25 142C25 206.617 77.3827 259 142 259Z" fill="#D9D9D9"/>
<path d="M130 81.5C130 74.5964 135.596 69 142.5 69C149.404 69 155 74.5964 155 81.5V202.5C155 209.404 149.404 215 142.5 215C135.596 215 130 209.404 130 202.5V81.5Z" fill="#D9D9D9"/>
<path d="M82 154.5C75.0964 154.5 69.5 148.904 69.5 142C69.5 135.096 75.0964 129.5 82 129.5H203C209.904 129.5 215.5 135.096 215.5 142C215.5 148.904 209.904 154.5 203 154.5H82Z" fill="#D9D9D9"/>
</svg>
