<svg width="600" height="600" viewBox="0 0 600 600" fill="none" xmlns="http://www.w3.org/2000/svg">
<path d="M380 140L220 140C208.954 140 200 148.954 200 160L200 440C200 451.046 208.954 460 220 460L380 460C391.046 460 400 451.046 400 440L400 160C400 148.954 391.046 140 380 140Z" fill="#A8C9FC"/>
<path d="M380 110L220 110C192.386 110 170 132.386 170 160L170 440C170 467.614 192.386 490 220 490L380 490C407.614 490 430 467.614 430 440L430 160C430 132.386 407.614 110 380 110Z" fill="white"/>
<path d="M380 140L220 140C208.954 140 200 148.954 200 160L200 440C200 451.046 208.954 460 220 460L380 460C391.046 460 400 451.046 400 440L400 160C400 148.954 391.046 140 380 140Z" fill="#A8C9FC"/>
<path d="M240 400L230 400C224.477 400 220 404.477 220 410L220 430C220 435.523 224.477 440 230 440L240 440C245.523 440 250 435.523 250 430L250 410C250 404.477 245.523 400 240 400Z" fill="white"/>
<path d="M240 320L230 320C224.477 320 220 324.477 220 330L220 350C220 355.523 224.477 360 230 360L240 360C245.523 360 250 355.523 250 350L250 330C250 324.477 245.523 320 240 320Z" fill="white"/>
<path d="M240 240H230C224.477 240 220 244.477 220 250L220 270C220 275.523 224.477 280 230 280L240 280C245.523 280 250 275.523 250 270L250 250C250 244.477 245.523 240 240 240Z" fill="white"/>
<path d="M240 160H230C224.477 160 220 164.477 220 170L220 190C220 195.523 224.477 200 230 200L240 200C245.523 200 250 195.523 250 190L250 170C250 164.477 245.523 160 240 160Z" fill="white"/>
<path d="M370 400L360 400C354.477 400 350 404.477 350 410L350 430C350 435.523 354.477 440 360 440L370 440C375.523 440 380 435.523 380 430L380 410C380 404.477 375.523 400 370 400Z" fill="white"/>
<path d="M370 320L360 320C354.477 320 350 324.477 350 330L350 350C350 355.523 354.477 360 360 360L370 360C375.523 360 380 355.523 380 350L380 330C380 324.477 375.523 320 370 320Z" fill="white"/>
<path d="M370 240H360C354.477 240 350 244.477 350 250L350 270C350 275.523 354.477 280 360 280L370 280C375.523 280 380 275.523 380 270L380 250C380 244.477 375.523 240 370 240Z" fill="white"/>
<path d="M370 160H360C354.477 160 350 164.477 350 170L350 190C350 195.523 354.477 200 360 200L370 200C375.523 200 380 195.523 380 190L380 170C380 164.477 375.523 160 370 160Z" fill="white"/>
<circle cx="400" cy="460" r="90" fill="white"/>
<circle cx="400" cy="460" r="60" fill="#7AACF9"/>
<path d="M370 458.602V482.718C370 486.178 372.78 489 376.23 489H424.77C428.22 489 431 486.178 431 482.718V458.602C431 456.601 429.391 454.961 427.385 454.961C425.379 454.961 423.77 456.601 423.77 458.602V480.077C423.77 480.992 423.037 481.718 422.154 481.718H378.846C377.963 481.718 377.23 480.992 377.23 480.077V458.602C377.23 456.601 375.621 454.961 373.615 454.961C371.609 454.961 370 456.601 370 458.602ZM403.07 427.07C401.658 425.643 399.363 425.643 397.951 427.07L381.307 443.878C379.9 445.299 379.9 447.599 381.307 449.02C382.72 450.447 385.014 450.447 386.427 449.02L396.895 438.449V474.324C396.895 476.325 398.504 477.965 400.51 477.965C402.516 477.965 404.126 476.325 404.126 474.324V438.449L414.594 449.02C416.006 450.447 418.301 450.447 419.714 449.02C421.121 447.599 421.121 445.299 419.714 443.878L403.07 427.07Z" fill="white" stroke="white" stroke-width="2"/>
</svg>
