<svg width="328" height="420" viewBox="0 0 328 420" fill="none" xmlns="http://www.w3.org/2000/svg">
<path fill-rule="evenodd" clip-rule="evenodd" d="M41 0H287C309.644 0 328 18.3563 328 41V379C328 401.644 309.644 420 287 420H41C18.3563 420 0 401.644 0 379V41C0 18.3563 18.3563 0 41 0ZM41 25C32.1634 25 25 32.1634 25 41V379C25 387.837 32.1634 395 41 395H287C295.837 395 303 387.837 303 379V41C303 32.1634 295.837 25 287 25H41Z" fill="#D9D9D9"/>
<path d="M49 140C49 131.163 56.1634 124 65 124H263C271.837 124 279 131.163 279 140V280C279 288.837 271.837 296 263 296H65C56.1635 296 49 288.837 49 280V140Z" fill="#D9D9D9"/>
</svg>
