<svg width="397" height="397" viewBox="0 0 397 397" fill="none" xmlns="http://www.w3.org/2000/svg">
<path fill-rule="evenodd" clip-rule="evenodd" d="M254.023 229.274C272.808 205.196 284 174.905 284 142C284 63.5756 220.424 0 142 0C63.5756 0 0 63.5756 0 142C0 220.424 63.5756 284 142 284C174.905 284 205.196 272.808 229.274 254.023L368.334 393.083C371.534 396.283 377.163 396.486 382.245 395.798C389.302 394.842 394.841 389.302 395.798 382.245C396.486 377.163 396.283 371.534 393.083 368.334L254.023 229.274ZM142 259C206.617 259 259 206.617 259 142C259 77.3827 206.617 25 142 25C77.3827 25 25 77.3827 25 142C25 206.617 77.3827 259 142 259Z" fill="#D9D9D9"/>
<path d="M91 69.5C91 62.5965 96.5964 57 103.5 57C110.404 57 116 62.5965 116 69.5V139.5C116 146.404 110.404 152 103.5 152C96.5964 152 91 146.404 91 139.5V69.5Z" fill="#D9D9D9"/>
<path d="M68.5 117C61.5965 117 56 111.404 56 104.5C56 97.5964 61.5965 92 68.5 92H138.5C145.404 92 151 97.5964 151 104.5C151 111.404 145.404 117 138.5 117H68.5Z" fill="#D9D9D9"/>
<path d="M143.426 191.926C136.523 191.926 130.926 186.33 130.926 179.426C130.926 172.523 136.523 166.926 143.426 166.926H213.426C220.33 166.926 225.926 172.523 225.926 179.426C225.926 186.33 220.33 191.926 213.426 191.926H143.426Z" fill="#D9D9D9"/>
</svg>
