<svg width="359" height="367" viewBox="0 0 359 367" fill="none" xmlns="http://www.w3.org/2000/svg">
<path fill-rule="evenodd" clip-rule="evenodd" d="M0 335.22V190.131C0 181.356 7.12455 174.241 15.9131 174.241C24.7017 174.241 31.8262 181.356 31.8262 190.131V319.329C31.8262 328.105 38.9508 335.22 47.7394 335.22H311.261C320.049 335.22 327.174 328.105 327.174 319.329V190.131C327.174 181.356 334.298 174.241 343.087 174.241C351.875 174.241 359 181.356 359 190.131V335.22C359 352.771 344.751 367 327.174 367H31.8262C14.2491 367 0 352.771 0 335.22Z" fill="#D9D9D9"/>
<path fill-rule="evenodd" clip-rule="evenodd" d="M168.311 4.65413C174.525 -1.55138 184.601 -1.55138 190.815 4.65413L292.086 105.779C298.3 111.984 298.3 122.045 292.086 128.251C285.871 134.456 275.796 134.456 269.581 128.251L195.476 54.2525V284.717C195.476 293.493 188.352 300.607 179.563 300.607C170.774 300.607 163.65 293.493 163.65 284.717V54.2525L89.5448 128.251C83.3304 134.456 73.2547 134.456 67.0403 128.251C60.8258 122.045 60.8258 111.984 67.0403 105.779L168.311 4.65413Z" fill="#D9D9D9"/>
</svg>
