<svg width="500" height="500" viewBox="0 0 500 500" fill="none" xmlns="http://www.w3.org/2000/svg">
<path fill-rule="evenodd" clip-rule="evenodd" d="M106 343.043V226.774C106 219.742 111.696 214.04 118.722 214.04C125.748 214.04 131.443 219.742 131.443 226.774V330.309C131.443 337.342 137.139 343.043 144.165 343.043H354.835C361.861 343.043 367.557 337.342 367.557 330.309V226.774C367.557 219.742 373.252 214.04 380.278 214.04C387.304 214.04 393 219.742 393 226.774V343.043C393 357.108 381.609 368.511 367.557 368.511H131.443C117.391 368.511 106 357.108 106 343.043Z" fill="black"/>
<path fill-rule="evenodd" clip-rule="evenodd" d="M240.921 78.2126C245.901 73.2482 253.976 73.2482 258.956 78.2126L340.115 159.112C345.095 164.076 345.095 172.124 340.115 177.089C335.134 182.053 327.06 182.053 322.08 177.089L262.692 117.891V302.261C262.692 309.281 256.982 314.972 249.939 314.972C242.895 314.972 237.186 309.281 237.186 302.261V117.891L177.798 177.089C172.818 182.053 164.743 182.053 159.763 177.089C154.782 172.124 154.782 164.076 159.763 159.112L240.921 78.2126Z" fill="black"/>
</svg>
