<svg width="500" height="500" viewBox="0 0 500 500" fill="none" xmlns="http://www.w3.org/2000/svg">
<path fill-rule="evenodd" clip-rule="evenodd" d="M109 340.967V226.683C109 219.772 114.598 214.167 121.504 214.167C128.41 214.167 134.009 219.772 134.009 226.683V328.45C134.009 335.363 139.607 340.967 146.513 340.967H353.586C360.491 340.967 366.09 335.363 366.09 328.45V226.683C366.09 219.772 371.688 214.167 378.594 214.167C385.5 214.167 391.098 219.772 391.098 226.683V340.967C391.098 354.792 379.902 366 366.09 366H134.009C120.197 366 109 354.792 109 340.967Z" fill="black"/>
<path fill-rule="evenodd" clip-rule="evenodd" d="M106 340.967V226.683C106 218.117 112.939 211.167 121.504 211.167C130.07 211.167 137.009 218.117 137.009 226.683V328.45C137.009 333.709 141.267 337.967 146.513 337.967H353.586C358.831 337.967 363.09 333.709 363.09 328.45V226.683C363.09 218.118 370.028 211.167 378.594 211.167C387.159 211.167 394.098 218.117 394.098 226.683V340.967C394.098 356.446 381.561 369 366.09 369H134.009C118.537 369 106 356.446 106 340.967ZM109 226.683V340.967C109 354.792 120.197 366 134.009 366H366.09C379.902 366 391.098 354.792 391.098 340.967V226.683C391.098 219.772 385.5 214.167 378.594 214.167C371.688 214.167 366.09 219.772 366.09 226.683V328.45C366.09 335.363 360.491 340.967 353.586 340.967H146.513C139.607 340.967 134.009 335.363 134.009 328.45V226.683C134.009 219.772 128.41 214.167 121.504 214.167C114.598 214.167 109 219.772 109 226.683Z" fill="black"/>
<path fill-rule="evenodd" clip-rule="evenodd" d="M241.617 80.6597C246.512 75.7801 254.449 75.7801 259.344 80.6597L339.117 160.177C344.012 165.056 344.012 172.968 339.117 177.848C334.221 182.727 326.285 182.727 321.389 177.848L263.016 119.66V300.881C263.016 307.782 257.404 313.376 250.481 313.376C243.557 313.376 237.946 307.782 237.946 300.881V119.66L179.572 177.848C174.677 182.727 166.74 182.727 161.845 177.848C156.949 172.968 156.949 165.056 161.845 160.177L241.617 80.6597Z" fill="black"/>
<path fill-rule="evenodd" clip-rule="evenodd" d="M321.389 177.848L263.016 119.66V300.881C263.016 307.782 257.404 313.376 250.481 313.376C243.557 313.376 237.946 307.782 237.946 300.881V119.66L179.572 177.848C174.677 182.727 166.74 182.727 161.845 177.848C156.949 172.968 156.949 165.056 161.845 160.177L241.617 80.6597C246.512 75.7801 254.449 75.7801 259.344 80.6597L339.117 160.177C344.012 165.056 344.012 172.968 339.117 177.848C334.221 182.727 326.285 182.727 321.389 177.848ZM261.462 78.5351L341.235 158.052C347.306 164.104 347.306 173.92 341.235 179.972C335.169 186.018 325.338 186.018 319.272 179.972L266.016 126.887V300.881C266.016 309.448 259.052 316.376 250.481 316.376C241.91 316.376 234.946 309.448 234.946 300.881V126.887L181.69 179.972C175.624 186.018 165.793 186.018 159.727 179.972C153.656 173.92 153.655 164.104 159.727 158.052L239.499 78.5351C239.499 78.535 239.499 78.5351 239.499 78.5351C245.565 72.4884 255.396 72.4884 261.462 78.5351Z" fill="black"/>
</svg>
