<svg width="420" height="328" viewBox="0 0 420 328" fill="none" xmlns="http://www.w3.org/2000/svg">
<path fill-rule="evenodd" clip-rule="evenodd" d="M39.7264 0H380.274C394.095 0 404.601 7.60962 410.767 15.924C416.935 24.2413 420 34.5527 420 44.8571V283.143C420 293.447 416.935 303.759 410.767 312.076C404.601 320.39 394.095 328 380.274 328H39.7264C25.9048 328 15.3988 320.39 9.23273 312.076C3.0645 303.759 0 293.447 0 283.143V44.8572C0 34.5527 3.0645 24.2413 9.23273 15.924C15.3988 7.60963 25.9048 0 39.7264 0ZM39.7264 25C31.5932 25 25 33.8904 25 44.8572V283.143C25 294.11 31.5932 303 39.7264 303H380.274C388.407 303 395 294.11 395 283.143V44.8571C395 33.8903 388.407 25 380.274 25H39.7264Z" fill="black"/>
</svg>
