<svg width="500" height="500" viewBox="0 0 500 500" fill="none" xmlns="http://www.w3.org/2000/svg">
<path fill-rule="evenodd" clip-rule="evenodd" d="M231.862 81.7437C241.63 71.9513 257.493 71.9514 267.261 81.7438L415.497 230.349C421.665 236.531 421.665 246.556 415.497 252.738C409.33 258.921 399.33 258.921 393.163 252.738L256.641 115.877C252.734 111.96 246.389 111.96 242.482 115.877L105.96 252.738C99.7924 258.921 89.793 258.921 83.6256 252.738C77.4581 246.556 77.4581 236.531 83.6256 230.349L231.862 81.7437Z" fill="black"/>
<path fill-rule="evenodd" clip-rule="evenodd" d="M142.591 257.375C151.312 257.375 158.381 264.43 158.381 273.133V354.485C158.381 357.246 160.62 359.485 163.381 359.485H334.655C337.416 359.485 339.655 357.246 339.655 354.485V273.133C339.655 264.43 346.725 257.375 355.445 257.375C364.166 257.375 371.236 264.43 371.236 273.133V366C371.236 379.807 360.043 391 346.236 391H151.801C137.994 391 126.801 379.807 126.801 366V273.133C126.801 264.43 133.87 257.375 142.591 257.375Z" fill="black"/>
</svg>
