<svg width="320" height="440" viewBox="0 0 320 440" fill="none" xmlns="http://www.w3.org/2000/svg">
<path d="M210 30L50 30C38.9543 30 30 38.9543 30 50L30 330C30 341.046 38.9543 350 50 350L210 350C221.046 350 230 341.046 230 330L230 50C230 38.9543 221.046 30 210 30Z" fill="#A8C9FC"/>
<path d="M210 0L50 0C22.3858 0 0 22.3858 0 50L0 330C0 357.614 22.3858 380 50 380L210 380C237.614 380 260 357.614 260 330L260 50C260 22.3858 237.614 0 210 0Z" fill="white"/>
<path d="M210 30L50 30C38.9543 30 30 38.9543 30 50L30 330C30 341.046 38.9543 350 50 350L210 350C221.046 350 230 341.046 230 330L230 50C230 38.9543 221.046 30 210 30Z" fill="#A8C9FC"/>
<path d="M70 290L60 290C54.4772 290 50 294.477 50 300L50 320C50 325.523 54.4772 330 60 330L70 330C75.5228 330 80 325.523 80 320L80 300C80 294.477 75.5228 290 70 290Z" fill="white"/>
<path d="M70 210H60C54.4772 210 50 214.477 50 220L50 240C50 245.523 54.4772 250 60 250L70 250C75.5228 250 80 245.523 80 240L80 220C80 214.477 75.5228 210 70 210Z" fill="white"/>
<path d="M70 130H60C54.4772 130 50 134.477 50 140L50 160C50 165.523 54.4772 170 60 170L70 170C75.5228 170 80 165.523 80 160L80 140C80 134.477 75.5228 130 70 130Z" fill="white"/>
<path d="M70 50L60 50C54.4772 50 50 54.4772 50 60L50 80C50 85.5228 54.4772 90 60 90L70 90C75.5228 90 80 85.5228 80 80L80 60C80 54.4772 75.5228 50 70 50Z" fill="white"/>
<path d="M200 290L190 290C184.477 290 180 294.477 180 300L180 320C180 325.523 184.477 330 190 330L200 330C205.523 330 210 325.523 210 320L210 300C210 294.477 205.523 290 200 290Z" fill="white"/>
<path d="M200 210H190C184.477 210 180 214.477 180 220L180 240C180 245.523 184.477 250 190 250L200 250C205.523 250 210 245.523 210 240L210 220C210 214.477 205.523 210 200 210Z" fill="white"/>
<path d="M200 130H190C184.477 130 180 134.477 180 140L180 160C180 165.523 184.477 170 190 170L200 170C205.523 170 210 165.523 210 160L210 140C210 134.477 205.523 130 200 130Z" fill="white"/>
<path d="M200 50L190 50C184.477 50 180 54.4772 180 60L180 80C180 85.5228 184.477 90 190 90L200 90C205.523 90 210 85.5228 210 80L210 60C210 54.4772 205.523 50 200 50Z" fill="white"/>
<circle cx="230" cy="350" r="90" fill="white"/>
<circle cx="230" cy="350" r="60" fill="#7AACF9"/>
<path d="M200 348.602V372.718C200 376.178 202.78 379 206.23 379H254.77C258.22 379 261 376.178 261 372.718V348.602C261 346.601 259.391 344.961 257.385 344.961C255.379 344.961 253.77 346.601 253.77 348.602V370.077C253.77 370.992 253.037 371.718 252.154 371.718H208.846C207.963 371.718 207.23 370.992 207.23 370.077V348.602C207.23 346.601 205.621 344.961 203.615 344.961C201.609 344.961 200 346.601 200 348.602ZM233.07 317.07C231.658 315.643 229.363 315.643 227.951 317.07L211.307 333.878C209.9 335.299 209.9 337.599 211.307 339.02C212.72 340.447 215.014 340.447 216.427 339.02L226.895 328.449V364.324C226.895 366.325 228.504 367.965 230.51 367.965C232.516 367.965 234.126 366.325 234.126 364.324V328.449L244.594 339.02C246.006 340.447 248.301 340.447 249.714 339.02C251.121 337.599 251.121 335.299 249.714 333.878L233.07 317.07Z" fill="white" stroke="white" stroke-width="2"/>
</svg>
