<svg width="585" height="431" viewBox="0 0 585 431" fill="none" xmlns="http://www.w3.org/2000/svg">
<path fill-rule="evenodd" clip-rule="evenodd" d="M404 0H0V13H6C12.6274 13 18 18.3726 18 25V33C18 39.6274 12.6274 45 6 45H0V173H6C12.6274 173 18 178.373 18 185V193C18 199.627 12.6274 205 6 205H0V218H404V205H398C391.373 205 386 199.627 386 193V185C386 178.373 391.373 173 398 173H404V45H398C391.373 45 386 39.6274 386 33V25C386 18.3726 391.373 13 398 13H404V0ZM48 13C41.3726 13 36 18.3726 36 25V33C36 39.6274 41.3726 45 48 45H56C62.6274 45 68 39.6274 68 33V25C68 18.3726 62.6274 13 56 13H48ZM86 25C86 18.3726 91.3726 13 98 13H106C112.627 13 118 18.3726 118 25V33C118 39.6274 112.627 45 106 45H98C91.3726 45 86 39.6274 86 33V25ZM148 13C141.373 13 136 18.3726 136 25V33C136 39.6274 141.373 45 148 45H156C162.627 45 168 39.6274 168 33V25C168 18.3726 162.627 13 156 13H148ZM186 25C186 18.3726 191.373 13 198 13H206C212.627 13 218 18.3726 218 25V33C218 39.6274 212.627 45 206 45H198C191.373 45 186 39.6274 186 33V25ZM248 13C241.373 13 236 18.3726 236 25V33C236 39.6274 241.373 45 248 45H256C262.627 45 268 39.6274 268 33V25C268 18.3726 262.627 13 256 13H248ZM286 25C286 18.3726 291.373 13 298 13H306C312.627 13 318 18.3726 318 25V33C318 39.6274 312.627 45 306 45H298C291.373 45 286 39.6274 286 33V25ZM348 13C341.373 13 336 18.3726 336 25V33C336 39.6274 341.373 45 348 45H356C362.627 45 368 39.6274 368 33V25C368 18.3726 362.627 13 356 13H348ZM36 185C36 178.373 41.3726 173 48 173H56C62.6274 173 68 178.373 68 185V193C68 199.627 62.6274 205 56 205H48C41.3726 205 36 199.627 36 193V185ZM98 173C91.3726 173 86 178.373 86 185V193C86 199.627 91.3726 205 98 205H106C112.627 205 118 199.627 118 193V185C118 178.373 112.627 173 106 173H98ZM136 185C136 178.373 141.373 173 148 173H156C162.627 173 168 178.373 168 185V193C168 199.627 162.627 205 156 205H148C141.373 205 136 199.627 136 193V185ZM198 173C191.373 173 186 178.373 186 185V193C186 199.627 191.373 205 198 205H206C212.627 205 218 199.627 218 193V185C218 178.373 212.627 173 206 173H198ZM236 185C236 178.373 241.373 173 248 173H256C262.627 173 268 178.373 268 185V193C268 199.627 262.627 205 256 205H248C241.373 205 236 199.627 236 193V185ZM298 173C291.373 173 286 178.373 286 185V193C286 199.627 291.373 205 298 205H306C312.627 205 318 199.627 318 193V185C318 178.373 312.627 173 306 173H298ZM336 185C336 178.373 341.373 173 348 173H356C362.627 173 368 178.373 368 185V193C368 199.627 362.627 205 356 205H348C341.373 205 336 199.627 336 193V185Z" fill="#D9D9D9"/>
<path fill-rule="evenodd" clip-rule="evenodd" d="M585 252H253V262.674H257.931C263.377 262.674 267.792 267.086 267.792 272.528V279.096C267.792 284.538 263.377 288.95 257.931 288.95H253V394.05H257.931C263.377 394.05 267.792 398.462 267.792 403.904V410.472C267.792 415.914 263.377 420.326 257.931 420.326H253V431H585V420.326H580.069C574.623 420.326 570.208 415.914 570.208 410.472V403.904C570.208 398.462 574.623 394.05 580.069 394.05H585V288.95H580.069C574.623 288.95 570.208 284.538 570.208 279.096V272.528C570.208 267.086 574.623 262.674 580.069 262.674H585V252ZM292.446 262.674C286.999 262.674 282.584 267.086 282.584 272.528V279.096C282.584 284.538 286.999 288.95 292.446 288.95H299.02C304.466 288.95 308.881 284.538 308.881 279.096V272.528C308.881 267.086 304.466 262.674 299.02 262.674H292.446ZM323.673 272.528C323.673 267.086 328.088 262.674 333.535 262.674H340.109C345.555 262.674 349.97 267.086 349.97 272.528V279.096C349.97 284.538 345.555 288.95 340.109 288.95H333.535C328.088 288.95 323.673 284.538 323.673 279.096V272.528ZM374.624 262.674C369.177 262.674 364.762 267.086 364.762 272.528V279.096C364.762 284.538 369.177 288.95 374.624 288.95H381.198C386.644 288.95 391.059 284.538 391.059 279.096V272.528C391.059 267.086 386.644 262.674 381.198 262.674H374.624ZM405.851 272.528C405.851 267.086 410.267 262.674 415.713 262.674H422.287C427.733 262.674 432.148 267.086 432.148 272.528V279.096C432.148 284.538 427.733 288.95 422.287 288.95H415.713C410.267 288.95 405.851 284.538 405.851 279.096V272.528ZM456.802 262.674C451.356 262.674 446.941 267.086 446.941 272.528V279.096C446.941 284.538 451.356 288.95 456.802 288.95H463.376C468.823 288.95 473.238 284.538 473.238 279.096V272.528C473.238 267.086 468.823 262.674 463.376 262.674H456.802ZM488.03 272.528C488.03 267.086 492.445 262.674 497.891 262.674H504.465C509.912 262.674 514.327 267.086 514.327 272.528V279.096C514.327 284.538 509.912 288.95 504.465 288.95H497.891C492.445 288.95 488.03 284.538 488.03 279.096V272.528ZM538.98 262.674C533.534 262.674 529.119 267.086 529.119 272.528V279.096C529.119 284.538 533.534 288.95 538.98 288.95H545.554C551.001 288.95 555.416 284.538 555.416 279.096V272.528C555.416 267.086 551.001 262.674 545.554 262.674H538.98ZM282.584 403.904C282.584 398.462 286.999 394.05 292.446 394.05H299.02C304.466 394.05 308.881 398.462 308.881 403.904V410.472C308.881 415.914 304.466 420.326 299.02 420.326H292.446C286.999 420.326 282.584 415.914 282.584 410.472V403.904ZM333.535 394.05C328.088 394.05 323.673 398.462 323.673 403.904V410.472C323.673 415.914 328.088 420.326 333.535 420.326H340.109C345.555 420.326 349.97 415.914 349.97 410.472V403.904C349.97 398.462 345.555 394.05 340.109 394.05H333.535ZM364.762 403.904C364.762 398.462 369.177 394.05 374.624 394.05H381.198C386.644 394.05 391.059 398.462 391.059 403.904V410.472C391.059 415.914 386.644 420.326 381.198 420.326H374.624C369.177 420.326 364.762 415.914 364.762 410.472V403.904ZM415.713 394.05C410.267 394.05 405.851 398.462 405.851 403.904V410.472C405.851 415.914 410.267 420.326 415.713 420.326H422.287C427.733 420.326 432.148 415.914 432.148 410.472V403.904C432.148 398.462 427.733 394.05 422.287 394.05H415.713ZM446.941 403.904C446.941 398.462 451.356 394.05 456.802 394.05H463.376C468.823 394.05 473.238 398.462 473.238 403.904V410.472C473.238 415.914 468.823 420.326 463.376 420.326H456.802C451.356 420.326 446.941 415.914 446.941 410.472V403.904ZM497.891 394.05C492.445 394.05 488.03 398.462 488.03 403.904V410.472C488.03 415.914 492.445 420.326 497.891 420.326H504.465C509.912 420.326 514.327 415.914 514.327 410.472V403.904C514.327 398.462 509.912 394.05 504.465 394.05H497.891ZM529.119 403.904C529.119 398.462 533.534 394.05 538.98 394.05H545.554C551.001 394.05 555.416 398.462 555.416 403.904V410.472C555.416 415.914 551.001 420.326 545.554 420.326H538.98C533.534 420.326 529.119 415.914 529.119 410.472V403.904Z" fill="#D9D9D9"/>
</svg>
