<svg width="390" height="460" viewBox="0 0 390 460" fill="none" xmlns="http://www.w3.org/2000/svg">
<path d="M340 80H180C152.386 80 130 102.386 130 130V410C130 437.614 152.386 460 180 460H340C367.614 460 390 437.614 390 410V130C390 102.386 367.614 80 340 80Z" fill="white"/>
<path d="M340 110H180C168.954 110 160 118.954 160 130V410C160 421.046 168.954 430 180 430H340C351.046 430 360 421.046 360 410V130C360 118.954 351.046 110 340 110Z" fill="#7AACF9"/>
<path d="M210 30H50C38.9543 30 30 38.9543 30 50V330C30 341.046 38.9543 350 50 350H210C221.046 350 230 341.046 230 330V50C230 38.9543 221.046 30 210 30Z" fill="#BFDBEB"/>
<path d="M210 0H50C22.3858 0 0 22.3858 0 50V330C0 357.614 22.3858 380 50 380H210C237.614 380 260 357.614 260 330V50C260 22.3858 237.614 0 210 0Z" fill="white"/>
<path d="M210 30H50C38.9543 30 30 38.9543 30 50V330C30 341.046 38.9543 350 50 350H210C221.046 350 230 341.046 230 330V50C230 38.9543 221.046 30 210 30Z" fill="#A8C9FC"/>
<path d="M70 290H60C54.4772 290 50 294.477 50 300V320C50 325.523 54.4772 330 60 330H70C75.5228 330 80 325.523 80 320V300C80 294.477 75.5228 290 70 290Z" fill="white"/>
<path d="M70 210H60C54.4772 210 50 214.477 50 220V240C50 245.523 54.4772 250 60 250H70C75.5228 250 80 245.523 80 240V220C80 214.477 75.5228 210 70 210Z" fill="white"/>
<path d="M70 130H60C54.4772 130 50 134.477 50 140V160C50 165.523 54.4772 170 60 170H70C75.5228 170 80 165.523 80 160V140C80 134.477 75.5228 130 70 130Z" fill="white"/>
<path d="M70 50H60C54.4772 50 50 54.4772 50 60V80C50 85.5228 54.4772 90 60 90H70C75.5228 90 80 85.5228 80 80V60C80 54.4772 75.5228 50 70 50Z" fill="white"/>
<path d="M200 50H190C184.477 50 180 54.4772 180 60V80C180 85.5228 184.477 90 190 90H200C205.523 90 210 85.5228 210 80V60C210 54.4772 205.523 50 200 50Z" fill="white"/>
<path d="M200 370H190C184.477 370 180 374.477 180 380V400C180 405.523 184.477 410 190 410H200C205.523 410 210 405.523 210 400V380C210 374.477 205.523 370 200 370Z" fill="white"/>
<path d="M330 370H320C314.477 370 310 374.477 310 380V400C310 405.523 314.477 410 320 410H330C335.523 410 340 405.523 340 400V380C340 374.477 335.523 370 330 370Z" fill="white"/>
<path d="M330 290H320C314.477 290 310 294.477 310 300V320C310 325.523 314.477 330 320 330H330C335.523 330 340 325.523 340 320V300C340 294.477 335.523 290 330 290Z" fill="white"/>
<path d="M330 210H320C314.477 210 310 214.477 310 220V240C310 245.523 314.477 250 320 250H330C335.523 250 340 245.523 340 240V220C340 214.477 335.523 210 330 210Z" fill="white"/>
<path d="M330 130H320C314.477 130 310 134.477 310 140V160C310 165.523 314.477 170 320 170H330C335.523 170 340 165.523 340 160V140C340 134.477 335.523 130 330 130Z" fill="white"/>
<path d="M210 140C160.29 140 120 180.29 120 230C120 279.71 160.29 320 210 320C259.71 320 300 279.71 300 230C300 180.29 259.71 140 210 140ZM255 242.27H222.27V275C222.27 281.78 216.78 287.27 210 287.27C203.22 287.27 197.73 281.78 197.73 275V242.27H165C158.22 242.27 152.73 236.78 152.73 230C152.73 223.22 158.22 217.73 165 217.73H197.73V185C197.73 178.22 203.22 172.73 210 172.73C216.78 172.73 222.27 178.22 222.27 185V217.73H255C261.78 217.73 267.27 223.22 267.27 230C267.27 236.78 261.78 242.27 255 242.27Z" fill="white"/>
<path d="M267.27 230C267.27 236.78 261.78 242.27 255 242.27H222.27V275C222.27 281.78 216.78 287.27 210 287.27C203.22 287.27 197.73 281.78 197.73 275V242.27H165C158.22 242.27 152.73 236.78 152.73 230C152.73 223.22 158.22 217.73 165 217.73H197.73V185C197.73 178.22 203.22 172.73 210 172.73C216.78 172.73 222.27 178.22 222.27 185V217.73H255C261.78 217.73 267.27 223.22 267.27 230Z" fill="#7AACF9"/>
</svg>
