<svg width="600" height="600" viewBox="0 0 600 600" fill="none" xmlns="http://www.w3.org/2000/svg">
<g clip-path="url(#clip0_457_2)">
<path fill-rule="evenodd" clip-rule="evenodd" d="M170.521 45.215L170.521 158.934C170.521 166.785 164.157 173.149 156.306 173.149L-42.7031 173.149C-50.5537 173.149 -56.918 166.785 -56.918 158.934L-56.918 45.2149C-56.918 37.3642 -50.5537 31 -42.703 31L156.306 31C164.157 31 170.521 37.3643 170.521 45.215ZM156.306 52.3224L156.306 59.4298C156.306 63.3552 153.124 66.5373 149.199 66.5373L134.984 66.5373C131.058 66.5373 127.876 63.3552 127.876 59.4298L127.876 52.3224C127.876 48.397 131.058 45.2149 134.984 45.2149L149.199 45.2149C153.124 45.2149 156.306 48.397 156.306 52.3224ZM99.4463 59.4298L99.4463 52.3224C99.4463 48.397 96.2642 45.2149 92.3389 45.2149L78.1239 45.2149C74.1986 45.2149 71.0165 48.397 71.0165 52.3224L71.0165 59.4298C71.0165 63.3552 74.1986 66.5373 78.1239 66.5373L92.3389 66.5373C96.2642 66.5373 99.4463 63.3552 99.4463 59.4298ZM42.5866 52.3224L42.5866 59.4298C42.5866 63.3552 39.4045 66.5373 35.4791 66.5373L21.2642 66.5373C17.3389 66.5373 14.1567 63.3552 14.1567 59.4298L14.1567 52.3224C14.1567 48.397 17.3389 45.2149 21.2642 45.2149L35.4791 45.2149C39.4045 45.2149 42.5866 48.397 42.5866 52.3224ZM-14.2731 52.3224L-14.2731 59.4298C-14.2731 63.3552 -17.4553 66.5373 -21.3806 66.5373L-35.5956 66.5373C-39.5209 66.5373 -42.703 63.3552 -42.703 59.4298L-42.703 52.3224C-42.703 48.397 -39.5209 45.2149 -35.5956 45.2149L-21.3806 45.2149C-17.4553 45.2149 -14.2731 48.397 -14.2731 52.3224ZM-14.3866 151.184L-14.3866 144.077C-14.3866 140.152 -17.5687 136.969 -21.494 136.969L-35.709 136.969C-39.6343 136.969 -42.8164 140.152 -42.8164 144.077L-42.8164 151.184C-42.8164 155.11 -39.6343 158.292 -35.709 158.292L-21.494 158.292C-17.5687 158.292 -14.3866 155.11 -14.3866 151.184ZM42.4732 144.077L42.4732 151.184C42.4732 155.11 39.2911 158.292 35.3657 158.292L21.1508 158.292C17.2254 158.292 14.0433 155.11 14.0433 151.184L14.0433 144.077C14.0433 140.152 17.2254 136.969 21.1508 136.969L35.3657 136.969C39.2911 136.969 42.4732 140.152 42.4732 144.077ZM99.3329 151.184L99.3329 144.077C99.3329 140.152 96.1508 136.969 92.2255 136.969L78.0105 136.969C74.0852 136.969 70.903 140.152 70.903 144.077L70.903 151.184C70.903 155.11 74.0852 158.292 78.0105 158.292L92.2255 158.292C96.1508 158.292 99.3329 155.11 99.3329 151.184ZM156.193 144.077L156.193 151.184C156.193 155.11 153.011 158.292 149.085 158.292L134.87 158.292C130.945 158.292 127.763 155.11 127.763 151.184L127.763 144.077C127.763 140.152 130.945 136.969 134.87 136.969L149.085 136.969C153.011 136.969 156.193 140.152 156.193 144.077Z" fill="black"/>
<path fill-rule="evenodd" clip-rule="evenodd" d="M27.439 218.215L27.439 331.934C27.439 339.785 21.0747 346.149 13.224 346.149L-185.785 346.149C-193.636 346.149 -200 339.785 -200 331.934L-200 218.215C-200 210.364 -193.636 204 -185.785 204L13.224 204C21.0747 204 27.439 210.364 27.439 218.215ZM13.2241 225.322L13.2241 232.43C13.2241 236.355 10.042 239.537 6.11666 239.537L-8.09828 239.537C-12.0236 239.537 -15.2057 236.355 -15.2057 232.43L-15.2057 225.322C-15.2057 221.397 -12.0236 218.215 -8.09828 218.215L6.11666 218.215C10.042 218.215 13.2241 221.397 13.2241 225.322ZM-43.6356 232.43L-43.6356 225.322C-43.6356 221.397 -46.8177 218.215 -50.7431 218.215L-64.958 218.215C-68.8834 218.215 -72.0655 221.397 -72.0655 225.322L-72.0655 232.43C-72.0655 236.355 -68.8834 239.537 -64.958 239.537L-50.7431 239.537C-46.8177 239.537 -43.6356 236.355 -43.6356 232.43ZM-100.495 225.322L-100.495 232.43C-100.495 236.355 -103.677 239.537 -107.603 239.537L-121.818 239.537C-125.743 239.537 -128.925 236.355 -128.925 232.43L-128.925 225.322C-128.925 221.397 -125.743 218.215 -121.818 218.215L-107.603 218.215C-103.677 218.215 -100.495 221.397 -100.495 225.322ZM-157.355 225.322L-157.355 232.43C-157.355 236.355 -160.537 239.537 -164.463 239.537L-178.678 239.537C-182.603 239.537 -185.785 236.355 -185.785 232.43L-185.785 225.322C-185.785 221.397 -182.603 218.215 -178.678 218.215L-164.463 218.215C-160.537 218.215 -157.355 221.397 -157.355 225.322ZM-157.469 324.184L-157.469 317.077C-157.469 313.151 -160.651 309.969 -164.576 309.969L-178.791 309.969C-182.716 309.969 -185.898 313.151 -185.898 317.077L-185.898 324.184C-185.898 328.11 -182.716 331.292 -178.791 331.292L-164.576 331.292C-160.651 331.292 -157.469 328.11 -157.469 324.184ZM-100.609 317.077L-100.609 324.184C-100.609 328.11 -103.791 331.292 -107.716 331.292L-121.931 331.292C-125.857 331.292 -129.039 328.11 -129.039 324.184L-129.039 317.077C-129.039 313.151 -125.857 309.969 -121.931 309.969L-107.716 309.969C-103.791 309.969 -100.609 313.151 -100.609 317.077ZM-43.749 324.184L-43.749 317.077C-43.749 313.152 -46.9312 309.969 -50.8565 309.969L-65.0714 309.969C-68.9968 309.969 -72.1789 313.152 -72.1789 317.077L-72.1789 324.184C-72.1789 328.11 -68.9968 331.292 -65.0714 331.292L-50.8565 331.292C-46.9312 331.292 -43.749 328.11 -43.749 324.184ZM13.1107 317.077L13.1107 324.184C13.1107 328.11 9.92858 331.292 6.00324 331.292L-8.2117 331.292C-12.137 331.292 -15.3192 328.11 -15.3192 324.184L-15.3192 317.077C-15.3192 313.152 -12.137 309.969 -8.2117 309.969L6.00324 309.969C9.92858 309.969 13.1107 313.152 13.1107 317.077Z" fill="black"/>
<path fill-rule="evenodd" clip-rule="evenodd" d="M428.119 44.6932L428.119 158.413C428.119 166.263 421.755 172.628 413.904 172.628L214.895 172.628C207.045 172.628 200.68 166.263 200.68 158.413L200.68 44.6932C200.68 36.8425 207.045 30.4783 214.895 30.4783L413.904 30.4783C421.755 30.4783 428.119 36.8425 428.119 44.6932ZM413.904 51.8006L413.904 58.9081C413.904 62.8335 410.722 66.0156 406.797 66.0156L392.582 66.0156C388.657 66.0156 385.474 62.8335 385.474 58.9081L385.474 51.8006C385.474 47.8753 388.657 44.6932 392.582 44.6932L406.797 44.6932C410.722 44.6932 413.904 47.8753 413.904 51.8006ZM357.045 58.9081L357.045 51.8006C357.045 47.8753 353.862 44.6932 349.937 44.6932L335.722 44.6932C331.797 44.6932 328.615 47.8753 328.615 51.8006L328.615 58.9081C328.615 62.8335 331.797 66.0156 335.722 66.0156L349.937 66.0156C353.862 66.0156 357.045 62.8335 357.045 58.9081ZM300.185 51.8006L300.185 58.9081C300.185 62.8335 297.003 66.0156 293.077 66.0156L278.862 66.0156C274.937 66.0156 271.755 62.8335 271.755 58.9081L271.755 51.8006C271.755 47.8753 274.937 44.6932 278.862 44.6932L293.077 44.6932C297.003 44.6932 300.185 47.8753 300.185 51.8006ZM243.325 51.8006L243.325 58.9081C243.325 62.8335 240.143 66.0156 236.218 66.0156L222.003 66.0156C218.077 66.0156 214.895 62.8335 214.895 58.9081L214.895 51.8006C214.895 47.8753 218.077 44.6932 222.003 44.6932L236.218 44.6932C240.143 44.6932 243.325 47.8753 243.325 51.8006ZM243.212 150.663L243.212 143.555C243.212 139.63 240.03 136.448 236.104 136.448L221.889 136.448C217.964 136.448 214.782 139.63 214.782 143.555L214.782 150.663C214.782 154.588 217.964 157.77 221.889 157.77L236.104 157.77C240.03 157.77 243.212 154.588 243.212 150.663ZM300.071 143.555L300.071 150.663C300.071 154.588 296.889 157.77 292.964 157.77L278.749 157.77C274.824 157.77 271.642 154.588 271.642 150.663L271.642 143.555C271.642 139.63 274.824 136.448 278.749 136.448L292.964 136.448C296.889 136.448 300.071 139.63 300.071 143.555ZM356.931 150.663L356.931 143.555C356.931 139.63 353.749 136.448 349.824 136.448L335.609 136.448C331.683 136.448 328.501 139.63 328.501 143.555L328.501 150.663C328.501 154.588 331.683 157.77 335.609 157.77L349.824 157.77C353.749 157.77 356.931 154.588 356.931 150.663ZM413.791 143.555L413.791 150.663C413.791 154.588 410.609 157.77 406.683 157.77L392.469 157.77C388.543 157.77 385.361 154.588 385.361 150.663L385.361 143.555C385.361 139.63 388.543 136.448 392.469 136.448L406.683 136.448C410.609 136.448 413.791 139.63 413.791 143.555Z" fill="black"/>
<path fill-rule="evenodd" clip-rule="evenodd" d="M285.037 217.693L285.037 331.413C285.037 339.263 278.673 345.628 270.822 345.628L71.8133 345.628C63.9626 345.628 57.5984 339.263 57.5984 331.413L57.5984 217.693C57.5984 209.843 63.9626 203.478 71.8133 203.478L270.822 203.478C278.673 203.478 285.037 209.843 285.037 217.693ZM270.822 224.801L270.822 231.908C270.822 235.833 267.64 239.016 263.715 239.016L249.5 239.016C245.575 239.016 242.393 235.833 242.393 231.908L242.393 224.801C242.393 220.875 245.575 217.693 249.5 217.693L263.715 217.693C267.64 217.693 270.822 220.875 270.822 224.801ZM213.963 231.908L213.963 224.801C213.963 220.875 210.781 217.693 206.855 217.693L192.64 217.693C188.715 217.693 185.533 220.875 185.533 224.801L185.533 231.908C185.533 235.833 188.715 239.016 192.64 239.016L206.855 239.016C210.781 239.016 213.963 235.833 213.963 231.908ZM157.103 224.801L157.103 231.908C157.103 235.833 153.921 239.016 149.995 239.016L135.781 239.016C131.855 239.016 128.673 235.833 128.673 231.908L128.673 224.801C128.673 220.875 131.855 217.693 135.781 217.693L149.995 217.693C153.921 217.693 157.103 220.875 157.103 224.801ZM100.243 224.801L100.243 231.908C100.243 235.833 97.061 239.016 93.1357 239.016L78.9208 239.016C74.9954 239.016 71.8133 235.833 71.8133 231.908L71.8133 224.801C71.8133 220.875 74.9954 217.693 78.9208 217.693L93.1357 217.693C97.061 217.693 100.243 220.875 100.243 224.801ZM100.13 323.663L100.13 316.555C100.13 312.63 96.9476 309.448 93.0223 309.448L78.8074 309.448C74.882 309.448 71.6999 312.63 71.6999 316.555L71.6999 323.663C71.6999 327.588 74.882 330.77 78.8074 330.77L93.0223 330.77C96.9476 330.77 100.13 327.588 100.13 323.663ZM156.989 316.555L156.989 323.663C156.989 327.588 153.807 330.77 149.882 330.77L135.667 330.77C131.742 330.77 128.56 327.588 128.56 323.663L128.56 316.555C128.56 312.63 131.742 309.448 135.667 309.448L149.882 309.448C153.807 309.448 156.989 312.63 156.989 316.555ZM213.849 323.663L213.849 316.555C213.849 312.63 210.667 309.448 206.742 309.448L192.527 309.448C188.601 309.448 185.419 312.63 185.419 316.555L185.419 323.663C185.419 327.588 188.601 330.77 192.527 330.77L206.742 330.77C210.667 330.77 213.849 327.588 213.849 323.663ZM270.709 316.555L270.709 323.663C270.709 327.588 267.527 330.77 263.602 330.77L249.387 330.77C245.461 330.77 242.279 327.588 242.279 323.663L242.279 316.555C242.279 312.63 245.461 309.448 249.387 309.448L263.602 309.448C267.527 309.448 270.709 312.63 270.709 316.555Z" fill="black"/>
<path fill-rule="evenodd" clip-rule="evenodd" d="M685.521 44.215L685.521 157.934C685.521 165.785 679.157 172.149 671.306 172.149L472.297 172.149C464.446 172.149 458.082 165.785 458.082 157.934L458.082 44.2149C458.082 36.3642 464.446 30 472.297 30L671.306 30C679.157 30 685.521 36.3643 685.521 44.215ZM671.306 51.3224L671.306 58.4298C671.306 62.3552 668.124 65.5373 664.199 65.5373L649.984 65.5373C646.058 65.5373 642.876 62.3552 642.876 58.4298L642.876 51.3224C642.876 47.397 646.058 44.2149 649.984 44.2149L664.199 44.2149C668.124 44.2149 671.306 47.397 671.306 51.3224ZM614.446 58.4298L614.446 51.3224C614.446 47.397 611.264 44.2149 607.339 44.2149L593.124 44.2149C589.198 44.2149 586.016 47.397 586.016 51.3224L586.016 58.4298C586.016 62.3552 589.198 65.5373 593.124 65.5373L607.339 65.5373C611.264 65.5373 614.446 62.3552 614.446 58.4298ZM557.587 51.3224L557.587 58.4298C557.587 62.3552 554.404 65.5373 550.479 65.5373L536.264 65.5373C532.339 65.5373 529.157 62.3552 529.157 58.4298L529.157 51.3224C529.157 47.397 532.339 44.2149 536.264 44.2149L550.479 44.2149C554.404 44.2149 557.587 47.397 557.587 51.3224ZM500.727 51.3224L500.727 58.4298C500.727 62.3552 497.545 65.5373 493.619 65.5373L479.404 65.5373C475.479 65.5373 472.297 62.3552 472.297 58.4298L472.297 51.3224C472.297 47.397 475.479 44.2149 479.404 44.2149L493.619 44.2149C497.545 44.2149 500.727 47.397 500.727 51.3224ZM500.613 150.184L500.613 143.077C500.613 139.152 497.431 135.969 493.506 135.969L479.291 135.969C475.366 135.969 472.183 139.152 472.183 143.077L472.183 150.184C472.183 154.11 475.366 157.292 479.291 157.292L493.506 157.292C497.431 157.292 500.613 154.11 500.613 150.184ZM557.473 143.077L557.473 150.184C557.473 154.11 554.291 157.292 550.366 157.292L536.151 157.292C532.225 157.292 529.043 154.11 529.043 150.184L529.043 143.077C529.043 139.152 532.225 135.969 536.151 135.969L550.366 135.969C554.291 135.969 557.473 139.152 557.473 143.077ZM614.333 150.184L614.333 143.077C614.333 139.152 611.151 135.969 607.225 135.969L593.01 135.969C589.085 135.969 585.903 139.152 585.903 143.077L585.903 150.184C585.903 154.11 589.085 157.292 593.01 157.292L607.225 157.292C611.151 157.292 614.333 154.11 614.333 150.184ZM671.193 143.077L671.193 150.184C671.193 154.11 668.01 157.292 664.085 157.292L649.87 157.292C645.945 157.292 642.763 154.11 642.763 150.184L642.763 143.077C642.763 139.152 645.945 135.969 649.87 135.969L664.085 135.969C668.01 135.969 671.193 139.152 671.193 143.077Z" fill="black"/>
<path fill-rule="evenodd" clip-rule="evenodd" d="M542.439 217.215L542.439 330.934C542.439 338.785 536.075 345.149 528.224 345.149L329.215 345.149C321.364 345.149 315 338.785 315 330.934L315 217.215C315 209.364 321.364 203 329.215 203L528.224 203C536.075 203 542.439 209.364 542.439 217.215ZM528.224 224.322L528.224 231.43C528.224 235.355 525.042 238.537 521.117 238.537L506.902 238.537C502.976 238.537 499.794 235.355 499.794 231.43L499.794 224.322C499.794 220.397 502.976 217.215 506.902 217.215L521.117 217.215C525.042 217.215 528.224 220.397 528.224 224.322ZM471.364 231.43L471.364 224.322C471.364 220.397 468.182 217.215 464.257 217.215L450.042 217.215C446.117 217.215 442.934 220.397 442.934 224.322L442.934 231.43C442.934 235.355 446.117 238.537 450.042 238.537L464.257 238.537C468.182 238.537 471.364 235.355 471.364 231.43ZM414.505 224.322L414.505 231.43C414.505 235.355 411.322 238.537 407.397 238.537L393.182 238.537C389.257 238.537 386.075 235.355 386.075 231.43L386.075 224.322C386.075 220.397 389.257 217.215 393.182 217.215L407.397 217.215C411.322 217.215 414.505 220.397 414.505 224.322ZM357.645 224.322L357.645 231.43C357.645 235.355 354.463 238.537 350.537 238.537L336.322 238.537C332.397 238.537 329.215 235.355 329.215 231.43L329.215 224.322C329.215 220.397 332.397 217.215 336.322 217.215L350.537 217.215C354.463 217.215 357.645 220.397 357.645 224.322ZM357.531 323.184L357.531 316.077C357.531 312.151 354.349 308.969 350.424 308.969L336.209 308.969C332.284 308.969 329.102 312.151 329.102 316.077L329.102 323.184C329.102 327.11 332.284 330.292 336.209 330.292L350.424 330.292C354.349 330.292 357.531 327.11 357.531 323.184ZM414.391 316.077L414.391 323.184C414.391 327.11 411.209 330.292 407.284 330.292L393.069 330.292C389.143 330.292 385.961 327.11 385.961 323.184L385.961 316.077C385.961 312.151 389.143 308.969 393.069 308.969L407.284 308.969C411.209 308.969 414.391 312.151 414.391 316.077ZM471.251 323.184L471.251 316.077C471.251 312.152 468.069 308.969 464.143 308.969L449.928 308.969C446.003 308.969 442.821 312.152 442.821 316.077L442.821 323.184C442.821 327.11 446.003 330.292 449.928 330.292L464.143 330.292C468.069 330.292 471.251 327.11 471.251 323.184ZM528.111 316.077L528.111 323.184C528.111 327.11 524.928 330.292 521.003 330.292L506.788 330.292C502.863 330.292 499.681 327.11 499.681 323.184L499.681 316.077C499.681 312.152 502.863 308.969 506.788 308.969L521.003 308.969C524.928 308.969 528.111 312.152 528.111 316.077Z" fill="black"/>
<path fill-rule="evenodd" clip-rule="evenodd" d="M799.439 218.215L799.439 331.934C799.439 339.785 793.075 346.149 785.224 346.149L586.215 346.149C578.364 346.149 572 339.785 572 331.934L572 218.215C572 210.364 578.364 204 586.215 204L785.224 204C793.075 204 799.439 210.364 799.439 218.215ZM785.224 225.322L785.224 232.43C785.224 236.355 782.042 239.537 778.117 239.537L763.902 239.537C759.976 239.537 756.794 236.355 756.794 232.43L756.794 225.322C756.794 221.397 759.976 218.215 763.902 218.215L778.117 218.215C782.042 218.215 785.224 221.397 785.224 225.322ZM728.364 232.43L728.364 225.322C728.364 221.397 725.182 218.215 721.257 218.215L707.042 218.215C703.117 218.215 699.934 221.397 699.934 225.322L699.934 232.43C699.934 236.355 703.117 239.537 707.042 239.537L721.257 239.537C725.182 239.537 728.364 236.355 728.364 232.43ZM671.505 225.322L671.505 232.43C671.505 236.355 668.322 239.537 664.397 239.537L650.182 239.537C646.257 239.537 643.075 236.355 643.075 232.43L643.075 225.322C643.075 221.397 646.257 218.215 650.182 218.215L664.397 218.215C668.322 218.215 671.505 221.397 671.505 225.322ZM614.645 225.322L614.645 232.43C614.645 236.355 611.463 239.537 607.537 239.537L593.322 239.537C589.397 239.537 586.215 236.355 586.215 232.43L586.215 225.322C586.215 221.397 589.397 218.215 593.322 218.215L607.537 218.215C611.463 218.215 614.645 221.397 614.645 225.322ZM614.531 324.184L614.531 317.077C614.531 313.151 611.349 309.969 607.424 309.969L593.209 309.969C589.284 309.969 586.102 313.151 586.102 317.077L586.102 324.184C586.102 328.11 589.284 331.292 593.209 331.292L607.424 331.292C611.349 331.292 614.531 328.11 614.531 324.184ZM671.391 317.077L671.391 324.184C671.391 328.11 668.209 331.292 664.284 331.292L650.069 331.292C646.143 331.292 642.961 328.11 642.961 324.184L642.961 317.077C642.961 313.151 646.143 309.969 650.069 309.969L664.284 309.969C668.209 309.969 671.391 313.151 671.391 317.077ZM728.251 324.184L728.251 317.077C728.251 313.152 725.069 309.969 721.143 309.969L706.928 309.969C703.003 309.969 699.821 313.152 699.821 317.077L699.821 324.184C699.821 328.11 703.003 331.292 706.928 331.292L721.143 331.292C725.069 331.292 728.251 328.11 728.251 324.184ZM785.111 317.077L785.111 324.184C785.111 328.11 781.928 331.292 778.003 331.292L763.788 331.292C759.863 331.292 756.681 328.11 756.681 324.184L756.681 317.077C756.681 313.152 759.863 309.969 763.788 309.969L778.003 309.969C781.928 309.969 785.111 313.152 785.111 317.077Z" fill="black"/>
</g>
<defs>
<clipPath id="clip0_457_2">
<rect width="600" height="600" fill="white"/>
</clipPath>
</defs>
</svg>
