<svg width="328" height="420" viewBox="0 0 328 420" fill="none" xmlns="http://www.w3.org/2000/svg">
<path fill-rule="evenodd" clip-rule="evenodd" d="M0 380.274L0 39.7264C0 25.9048 7.60962 15.3988 15.924 9.23273C24.2413 3.06451 34.5527 0 44.8571 0H283.143C293.447 0 303.759 3.06451 312.076 9.23273C320.39 15.3988 328 25.9048 328 39.7264V380.274C328 394.095 320.39 404.601 312.076 410.767C303.759 416.935 293.447 420 283.143 420H44.8572C34.5527 420 24.2413 416.936 15.924 410.767C7.60963 404.601 0 394.095 0 380.274ZM25 380.274C25 388.407 33.8904 395 44.8572 395H283.143C294.11 395 303 388.407 303 380.274V39.7264C303 31.5932 294.11 25 283.143 25H44.8571C33.8903 25 25 31.5932 25 39.7264L25 380.274Z" fill="black"/>
</svg>
