<svg width="328" height="420" viewBox="0 0 328 420" fill="none" xmlns="http://www.w3.org/2000/svg">
<path fill-rule="evenodd" clip-rule="evenodd" d="M41 0H287C309.644 0 328 18.3563 328 41V379C328 401.644 309.644 420 287 420H41C18.3563 420 0 401.644 0 379V41C0 18.3563 18.3563 0 41 0ZM41 25C32.1634 25 25 32.1634 25 41V379C25 387.837 32.1634 395 41 395H287C295.837 395 303 387.837 303 379V41C303 32.1634 295.837 25 287 25H41Z" fill="#D9D9D9"/>
<path d="M49 66C49 57.1634 56.1634 50 65 50H263C271.837 50 279 57.1634 279 66V354C279 362.837 271.837 370 263 370H65C56.1635 370 49 362.837 49 354V66Z" fill="#D9D9D9"/>
</svg>
